# xmcd CD database file
#
# Track frame offsets:
#	183
#	32328
#	44780
#	82628
#	124068
#	156663
#	190373
#	218590
#	254125
#
# Disc length: 3946 seconds
#
# Revision: 1
# Processed by: cddbd v1.4PL0 Copyright (c) Steve Scherf et al.
# Submitted via: CDex 1.50
#
DISCID=7c0f6809
DTITLE=Thelonious Monk - In Europe 1961
DYEAR=1961
DGENRE=Jazz
TTITLE0=Jackie-Ing
TTITLE1=Crepuscle with Nellie
TTITLE2=Off minor
TTITLE3=Straight no chaiser
TTITLE4=Evidence
TTITLE5=well you needn't
TTITLE6=I mean you
TTITLE7=Round midnight
TTITLE8=Blue monk
EXTD=YEAR: 1961
EXTT0=
EXTT1=
EXTT2=
EXTT3=
EXTT4=
EXTT5=
EXTT6=
EXTT7=
EXTT8=
PLAYORDER=
